<mxfile host="Electron" modified="2024-03-02T09:52:34.425Z" agent="Mozilla/5.0 (X11; Linux x86_64) AppleWebKit/537.36 (KHTML, like Gecko) draw.io/23.1.5 Chrome/120.0.6099.109 Electron/28.1.0 Safari/537.36" etag="g2Hje3H85cXlNbn_RlVJ" version="23.1.5" type="device">
  <diagram name="Страница — 1" id="iSa3_9lvW1lIsnlGRvH2">
    <mxGraphModel dx="1620" dy="843" grid="1" gridSize="10" guides="1" tooltips="1" connect="1" arrows="1" fold="1" page="1" pageScale="1" pageWidth="1100" pageHeight="850" math="0" shadow="0">
      <root>
        <mxCell id="0" />
        <mxCell id="1" parent="0" />
        <mxCell id="KNuLbcdo1pJYnmBxfGh1-1" value="&lt;b&gt;&lt;font style=&quot;font-size: 18px;&quot;&gt;Клиент записывается на тренировку, а затем оплачивает ее бонусами&lt;/font&gt;&lt;/b&gt;" style="text;html=1;align=center;verticalAlign=middle;resizable=0;points=[];autosize=1;strokeColor=none;fillColor=none;fontColor=#000000;rotation=0;" vertex="1" parent="1">
          <mxGeometry x="235" y="105" width="650" height="40" as="geometry" />
        </mxCell>
        <mxCell id="KNuLbcdo1pJYnmBxfGh1-2" value="&lt;b&gt;&lt;font style=&quot;font-size: 18px;&quot;&gt;Пользователь&lt;/font&gt;&lt;/b&gt;" style="text;html=1;align=center;verticalAlign=middle;resizable=0;points=[];autosize=1;strokeColor=none;fillColor=none;fontColor=#000000;rotation=-90;" vertex="1" parent="1">
          <mxGeometry x="160" y="270" width="150" height="40" as="geometry" />
        </mxCell>
        <mxCell id="KNuLbcdo1pJYnmBxfGh1-3" value="&lt;b&gt;Сиситема&lt;/b&gt;" style="text;html=1;align=center;verticalAlign=middle;resizable=0;points=[];autosize=1;strokeColor=none;fillColor=none;fontSize=18;fontColor=#000000;rotation=-90;" vertex="1" parent="1">
          <mxGeometry x="180" y="429.5" width="110" height="40" as="geometry" />
        </mxCell>
        <mxCell id="KNuLbcdo1pJYnmBxfGh1-4" style="edgeStyle=orthogonalEdgeStyle;rounded=0;orthogonalLoop=1;jettySize=auto;html=1;entryX=0;entryY=0.5;entryDx=0;entryDy=0;fontSize=11;fontColor=#000000;" edge="1" parent="1" source="KNuLbcdo1pJYnmBxfGh1-5" target="KNuLbcdo1pJYnmBxfGh1-7">
          <mxGeometry relative="1" as="geometry" />
        </mxCell>
        <mxCell id="KNuLbcdo1pJYnmBxfGh1-5" value="" style="ellipse;whiteSpace=wrap;html=1;aspect=fixed;labelBackgroundColor=#E6FFCC;fillColor=none;labelBorderColor=#CCFF99;shadow=0;strokeColor=#000000;" vertex="1" parent="1">
          <mxGeometry x="300" y="252.5" width="35" height="35" as="geometry" />
        </mxCell>
        <mxCell id="KNuLbcdo1pJYnmBxfGh1-6" style="edgeStyle=orthogonalEdgeStyle;rounded=0;orthogonalLoop=1;jettySize=auto;html=1;entryX=0.5;entryY=0;entryDx=0;entryDy=0;fontSize=11;fontColor=#000000;" edge="1" parent="1" source="KNuLbcdo1pJYnmBxfGh1-7" target="KNuLbcdo1pJYnmBxfGh1-9">
          <mxGeometry relative="1" as="geometry" />
        </mxCell>
        <mxCell id="KNuLbcdo1pJYnmBxfGh1-7" value="Начать выполнение запланированной тренировки" style="rounded=1;whiteSpace=wrap;html=1;shadow=0;labelBackgroundColor=none;labelBorderColor=none;strokeColor=#000000;fillColor=none;fontSize=10;" vertex="1" parent="1">
          <mxGeometry x="370" y="243.75" width="90" height="52.5" as="geometry" />
        </mxCell>
        <mxCell id="KNuLbcdo1pJYnmBxfGh1-8" style="edgeStyle=orthogonalEdgeStyle;rounded=0;orthogonalLoop=1;jettySize=auto;html=1;entryX=0;entryY=0.5;entryDx=0;entryDy=0;fontSize=11;fontColor=#000000;" edge="1" parent="1" source="KNuLbcdo1pJYnmBxfGh1-9" target="KNuLbcdo1pJYnmBxfGh1-12">
          <mxGeometry relative="1" as="geometry" />
        </mxCell>
        <mxCell id="KNuLbcdo1pJYnmBxfGh1-9" value="Извлечь объект запланированной тренировки" style="rounded=1;whiteSpace=wrap;html=1;shadow=0;labelBackgroundColor=none;labelBorderColor=none;strokeColor=#000000;fillColor=none;fontSize=10;" vertex="1" parent="1">
          <mxGeometry x="370" y="393.75" width="90" height="52.5" as="geometry" />
        </mxCell>
        <mxCell id="KNuLbcdo1pJYnmBxfGh1-10" style="edgeStyle=orthogonalEdgeStyle;rounded=0;orthogonalLoop=1;jettySize=auto;html=1;entryX=0;entryY=0.5;entryDx=0;entryDy=0;fontSize=11;fontColor=#000000;" edge="1" parent="1" source="KNuLbcdo1pJYnmBxfGh1-12" target="KNuLbcdo1pJYnmBxfGh1-15">
          <mxGeometry relative="1" as="geometry" />
        </mxCell>
        <mxCell id="KNuLbcdo1pJYnmBxfGh1-11" style="edgeStyle=orthogonalEdgeStyle;rounded=0;orthogonalLoop=1;jettySize=auto;html=1;entryX=0.5;entryY=1;entryDx=0;entryDy=0;fontSize=11;fontColor=#000000;" edge="1" parent="1" source="KNuLbcdo1pJYnmBxfGh1-12" target="KNuLbcdo1pJYnmBxfGh1-17">
          <mxGeometry relative="1" as="geometry">
            <Array as="points">
              <mxPoint x="529" y="370" />
              <mxPoint x="635" y="370" />
            </Array>
          </mxGeometry>
        </mxCell>
        <mxCell id="KNuLbcdo1pJYnmBxfGh1-12" value="" style="rhombus;whiteSpace=wrap;html=1;shadow=0;labelBackgroundColor=none;labelBorderColor=none;strokeColor=#000000;fontSize=10;fillColor=none;" vertex="1" parent="1">
          <mxGeometry x="500" y="396.25" width="57" height="47.5" as="geometry" />
        </mxCell>
        <mxCell id="KNuLbcdo1pJYnmBxfGh1-13" value="&lt;font style=&quot;font-size: 11px;&quot;&gt;Объект запланированной &lt;br&gt;тренировки найден?&lt;/font&gt;" style="text;html=1;align=center;verticalAlign=middle;resizable=0;points=[];autosize=1;strokeColor=none;fillColor=none;fontSize=18;fontColor=#000000;" vertex="1" parent="1">
          <mxGeometry x="448.5" y="440" width="160" height="60" as="geometry" />
        </mxCell>
        <mxCell id="KNuLbcdo1pJYnmBxfGh1-14" style="edgeStyle=orthogonalEdgeStyle;rounded=0;orthogonalLoop=1;jettySize=auto;html=1;entryX=0.5;entryY=1;entryDx=0;entryDy=0;fontSize=11;fontColor=#000000;" edge="1" parent="1" source="KNuLbcdo1pJYnmBxfGh1-15" target="KNuLbcdo1pJYnmBxfGh1-17">
          <mxGeometry relative="1" as="geometry" />
        </mxCell>
        <mxCell id="KNuLbcdo1pJYnmBxfGh1-15" value="Создать пустой объект тренировки" style="rounded=1;whiteSpace=wrap;html=1;shadow=0;labelBackgroundColor=none;labelBorderColor=none;strokeColor=#000000;fillColor=none;fontSize=10;" vertex="1" parent="1">
          <mxGeometry x="590" y="393.75" width="90" height="52.5" as="geometry" />
        </mxCell>
        <mxCell id="KNuLbcdo1pJYnmBxfGh1-16" style="edgeStyle=orthogonalEdgeStyle;rounded=0;orthogonalLoop=1;jettySize=auto;html=1;entryX=0.5;entryY=0;entryDx=0;entryDy=0;fontSize=11;fontColor=#000000;" edge="1" parent="1" source="KNuLbcdo1pJYnmBxfGh1-17" target="KNuLbcdo1pJYnmBxfGh1-19">
          <mxGeometry relative="1" as="geometry" />
        </mxCell>
        <mxCell id="KNuLbcdo1pJYnmBxfGh1-17" value="Добавляет информацию об очередном подходе" style="rounded=1;whiteSpace=wrap;html=1;shadow=0;labelBackgroundColor=none;labelBorderColor=none;strokeColor=#000000;fillColor=none;fontSize=10;" vertex="1" parent="1">
          <mxGeometry x="590" y="243.75" width="90" height="52.5" as="geometry" />
        </mxCell>
        <mxCell id="KNuLbcdo1pJYnmBxfGh1-18" style="edgeStyle=orthogonalEdgeStyle;rounded=0;orthogonalLoop=1;jettySize=auto;html=1;exitX=0.5;exitY=1;exitDx=0;exitDy=0;entryX=0;entryY=0.5;entryDx=0;entryDy=0;fontSize=11;fontColor=#000000;" edge="1" parent="1" source="KNuLbcdo1pJYnmBxfGh1-19" target="KNuLbcdo1pJYnmBxfGh1-22">
          <mxGeometry relative="1" as="geometry" />
        </mxCell>
        <mxCell id="KNuLbcdo1pJYnmBxfGh1-19" value="Извлечь объект запланированного подхода" style="rounded=1;whiteSpace=wrap;html=1;shadow=0;labelBackgroundColor=none;labelBorderColor=none;strokeColor=#000000;fillColor=none;fontSize=10;" vertex="1" parent="1">
          <mxGeometry x="710" y="393.75" width="90" height="52.5" as="geometry" />
        </mxCell>
        <mxCell id="KNuLbcdo1pJYnmBxfGh1-20" style="edgeStyle=orthogonalEdgeStyle;rounded=0;orthogonalLoop=1;jettySize=auto;html=1;fontSize=11;fontColor=#000000;" edge="1" parent="1" source="KNuLbcdo1pJYnmBxfGh1-22" target="KNuLbcdo1pJYnmBxfGh1-25">
          <mxGeometry relative="1" as="geometry" />
        </mxCell>
        <mxCell id="KNuLbcdo1pJYnmBxfGh1-21" style="edgeStyle=orthogonalEdgeStyle;rounded=0;orthogonalLoop=1;jettySize=auto;html=1;entryX=0;entryY=0.5;entryDx=0;entryDy=0;fontSize=11;fontColor=#000000;exitX=1;exitY=0.5;exitDx=0;exitDy=0;" edge="1" parent="1" source="KNuLbcdo1pJYnmBxfGh1-22" target="KNuLbcdo1pJYnmBxfGh1-27">
          <mxGeometry relative="1" as="geometry">
            <mxPoint x="866.9999999999995" y="493.2499999999998" as="sourcePoint" />
            <Array as="points">
              <mxPoint x="880" y="493" />
              <mxPoint x="880" y="420" />
            </Array>
          </mxGeometry>
        </mxCell>
        <mxCell id="KNuLbcdo1pJYnmBxfGh1-22" value="" style="rhombus;whiteSpace=wrap;html=1;shadow=0;labelBackgroundColor=none;labelBorderColor=none;strokeColor=#000000;fontSize=10;fillColor=none;" vertex="1" parent="1">
          <mxGeometry x="780" y="469.5" width="57" height="47.5" as="geometry" />
        </mxCell>
        <mxCell id="KNuLbcdo1pJYnmBxfGh1-23" value="&lt;font style=&quot;font-size: 11px;&quot;&gt;Объект запланированного&lt;br&gt;подхода найден?&lt;/font&gt;" style="text;html=1;align=center;verticalAlign=middle;resizable=0;points=[];autosize=1;strokeColor=none;fillColor=none;fontSize=18;fontColor=#000000;" vertex="1" parent="1">
          <mxGeometry x="636" y="500" width="160" height="60" as="geometry" />
        </mxCell>
        <mxCell id="KNuLbcdo1pJYnmBxfGh1-24" style="edgeStyle=orthogonalEdgeStyle;rounded=0;orthogonalLoop=1;jettySize=auto;html=1;entryX=0;entryY=0.5;entryDx=0;entryDy=0;fontSize=11;fontColor=#000000;exitX=1;exitY=0.5;exitDx=0;exitDy=0;" edge="1" parent="1" source="KNuLbcdo1pJYnmBxfGh1-25" target="KNuLbcdo1pJYnmBxfGh1-27">
          <mxGeometry relative="1" as="geometry">
            <mxPoint x="883.5" y="576.25" as="sourcePoint" />
            <Array as="points">
              <mxPoint x="880" y="576" />
              <mxPoint x="880" y="420" />
            </Array>
          </mxGeometry>
        </mxCell>
        <mxCell id="KNuLbcdo1pJYnmBxfGh1-25" value="Создает пустой объект подхода" style="rounded=1;whiteSpace=wrap;html=1;shadow=0;labelBackgroundColor=none;labelBorderColor=none;strokeColor=#000000;fillColor=none;fontSize=10;" vertex="1" parent="1">
          <mxGeometry x="763.5" y="550" width="90" height="52.5" as="geometry" />
        </mxCell>
        <mxCell id="KNuLbcdo1pJYnmBxfGh1-26" style="edgeStyle=orthogonalEdgeStyle;rounded=0;orthogonalLoop=1;jettySize=auto;html=1;entryX=0;entryY=0.5;entryDx=0;entryDy=0;fontSize=11;fontColor=#000000;" edge="1" parent="1" source="KNuLbcdo1pJYnmBxfGh1-27" target="KNuLbcdo1pJYnmBxfGh1-29">
          <mxGeometry relative="1" as="geometry" />
        </mxCell>
        <mxCell id="KNuLbcdo1pJYnmBxfGh1-27" value="Внести изменения в объект подхода" style="rounded=1;whiteSpace=wrap;html=1;shadow=0;labelBackgroundColor=none;labelBorderColor=none;strokeColor=#000000;fillColor=none;fontSize=10;" vertex="1" parent="1">
          <mxGeometry x="910" y="393.75" width="90" height="52.5" as="geometry" />
        </mxCell>
        <mxCell id="KNuLbcdo1pJYnmBxfGh1-28" style="edgeStyle=orthogonalEdgeStyle;rounded=0;orthogonalLoop=1;jettySize=auto;html=1;entryX=0.5;entryY=1;entryDx=0;entryDy=0;fontSize=11;fontColor=#000000;" edge="1" parent="1" source="KNuLbcdo1pJYnmBxfGh1-29" target="KNuLbcdo1pJYnmBxfGh1-31">
          <mxGeometry relative="1" as="geometry" />
        </mxCell>
        <mxCell id="KNuLbcdo1pJYnmBxfGh1-29" value="Сохранить объект подхода" style="rounded=1;whiteSpace=wrap;html=1;shadow=0;labelBackgroundColor=none;labelBorderColor=none;strokeColor=#000000;fillColor=none;fontSize=10;" vertex="1" parent="1">
          <mxGeometry x="1040" y="393.75" width="90" height="52.5" as="geometry" />
        </mxCell>
        <mxCell id="KNuLbcdo1pJYnmBxfGh1-30" style="edgeStyle=orthogonalEdgeStyle;rounded=0;orthogonalLoop=1;jettySize=auto;html=1;entryX=0.5;entryY=0;entryDx=0;entryDy=0;fontSize=11;fontColor=#000000;" edge="1" parent="1" source="KNuLbcdo1pJYnmBxfGh1-31" target="KNuLbcdo1pJYnmBxfGh1-34">
          <mxGeometry relative="1" as="geometry" />
        </mxCell>
        <mxCell id="KNuLbcdo1pJYnmBxfGh1-31" value="Завершить тренировку" style="rounded=1;whiteSpace=wrap;html=1;shadow=0;labelBackgroundColor=none;labelBorderColor=none;strokeColor=#000000;fillColor=none;fontSize=10;" vertex="1" parent="1">
          <mxGeometry x="1040" y="243.75" width="90" height="52.5" as="geometry" />
        </mxCell>
        <mxCell id="KNuLbcdo1pJYnmBxfGh1-32" style="edgeStyle=orthogonalEdgeStyle;rounded=0;orthogonalLoop=1;jettySize=auto;html=1;entryX=0;entryY=0.5;entryDx=0;entryDy=0;fontSize=11;fontColor=#000000;" edge="1" parent="1" source="KNuLbcdo1pJYnmBxfGh1-34" target="KNuLbcdo1pJYnmBxfGh1-39">
          <mxGeometry relative="1" as="geometry" />
        </mxCell>
        <mxCell id="KNuLbcdo1pJYnmBxfGh1-33" style="edgeStyle=orthogonalEdgeStyle;rounded=0;orthogonalLoop=1;jettySize=auto;html=1;exitX=0.5;exitY=1;exitDx=0;exitDy=0;entryX=0.5;entryY=0;entryDx=0;entryDy=0;fontSize=11;fontColor=#000000;" edge="1" parent="1" source="KNuLbcdo1pJYnmBxfGh1-34" target="KNuLbcdo1pJYnmBxfGh1-37">
          <mxGeometry relative="1" as="geometry" />
        </mxCell>
        <mxCell id="KNuLbcdo1pJYnmBxfGh1-34" value="" style="rhombus;whiteSpace=wrap;html=1;shadow=0;labelBackgroundColor=none;labelBorderColor=none;strokeColor=#000000;fontSize=10;fillColor=none;" vertex="1" parent="1">
          <mxGeometry x="1190" y="396.25" width="57" height="47.5" as="geometry" />
        </mxCell>
        <mxCell id="KNuLbcdo1pJYnmBxfGh1-35" value="В тренировке &lt;br&gt;есть подходы?" style="text;html=1;align=center;verticalAlign=middle;resizable=0;points=[];autosize=1;strokeColor=none;fillColor=none;fontSize=11;fontColor=#000000;" vertex="1" parent="1">
          <mxGeometry x="1110" y="446.25" width="100" height="40" as="geometry" />
        </mxCell>
        <mxCell id="KNuLbcdo1pJYnmBxfGh1-36" style="edgeStyle=orthogonalEdgeStyle;rounded=0;orthogonalLoop=1;jettySize=auto;html=1;exitX=1;exitY=0.5;exitDx=0;exitDy=0;entryX=0;entryY=0.5;entryDx=0;entryDy=0;fontSize=11;fontColor=#000000;" edge="1" parent="1" source="KNuLbcdo1pJYnmBxfGh1-37" target="KNuLbcdo1pJYnmBxfGh1-41">
          <mxGeometry relative="1" as="geometry" />
        </mxCell>
        <mxCell id="KNuLbcdo1pJYnmBxfGh1-37" value="Отказ в действии" style="rounded=1;whiteSpace=wrap;html=1;shadow=0;labelBackgroundColor=none;labelBorderColor=none;strokeColor=#000000;fillColor=none;fontSize=10;" vertex="1" parent="1">
          <mxGeometry x="1173.5" y="550" width="90" height="52.5" as="geometry" />
        </mxCell>
        <mxCell id="KNuLbcdo1pJYnmBxfGh1-38" style="edgeStyle=orthogonalEdgeStyle;rounded=0;orthogonalLoop=1;jettySize=auto;html=1;exitX=1;exitY=0.5;exitDx=0;exitDy=0;entryX=0;entryY=0.5;entryDx=0;entryDy=0;fontSize=11;fontColor=#000000;" edge="1" parent="1" source="KNuLbcdo1pJYnmBxfGh1-39" target="KNuLbcdo1pJYnmBxfGh1-40">
          <mxGeometry relative="1" as="geometry" />
        </mxCell>
        <mxCell id="KNuLbcdo1pJYnmBxfGh1-39" value="Сохранить объект тренировки" style="rounded=1;whiteSpace=wrap;html=1;shadow=0;labelBackgroundColor=none;labelBorderColor=none;strokeColor=#000000;fillColor=none;fontSize=10;" vertex="1" parent="1">
          <mxGeometry x="1300" y="393.75" width="90" height="52.5" as="geometry" />
        </mxCell>
        <mxCell id="KNuLbcdo1pJYnmBxfGh1-40" value="" style="ellipse;whiteSpace=wrap;html=1;aspect=fixed;labelBackgroundColor=#E6FFCC;fillColor=none;labelBorderColor=#CCFF99;shadow=0;strokeColor=#000000;" vertex="1" parent="1">
          <mxGeometry x="1450" y="402.5" width="35" height="35" as="geometry" />
        </mxCell>
        <mxCell id="KNuLbcdo1pJYnmBxfGh1-41" value="" style="ellipse;whiteSpace=wrap;html=1;aspect=fixed;labelBackgroundColor=#E6FFCC;fillColor=none;labelBorderColor=#CCFF99;shadow=0;strokeColor=#000000;" vertex="1" parent="1">
          <mxGeometry x="1327.5" y="558.75" width="35" height="35" as="geometry" />
        </mxCell>
        <mxCell id="KNuLbcdo1pJYnmBxfGh1-42" value="Старт" style="text;html=1;align=center;verticalAlign=middle;resizable=0;points=[];autosize=1;strokeColor=none;fillColor=none;fontSize=11;fontColor=#000000;" vertex="1" parent="1">
          <mxGeometry x="290" y="296.25" width="50" height="30" as="geometry" />
        </mxCell>
        <mxCell id="KNuLbcdo1pJYnmBxfGh1-43" value="Успешное &lt;br&gt;завершение" style="text;html=1;align=center;verticalAlign=middle;resizable=0;points=[];autosize=1;strokeColor=none;fillColor=none;fontSize=11;fontColor=#000000;" vertex="1" parent="1">
          <mxGeometry x="1425" y="440" width="90" height="40" as="geometry" />
        </mxCell>
        <mxCell id="KNuLbcdo1pJYnmBxfGh1-44" value="Не успешное&lt;br&gt;завершение" style="text;html=1;align=center;verticalAlign=middle;resizable=0;points=[];autosize=1;strokeColor=none;fillColor=none;fontSize=11;fontColor=#000000;" vertex="1" parent="1">
          <mxGeometry x="1300" y="602.5" width="90" height="40" as="geometry" />
        </mxCell>
        <mxCell id="KNuLbcdo1pJYnmBxfGh1-45" value="Да" style="text;html=1;align=center;verticalAlign=middle;resizable=0;points=[];autosize=1;strokeColor=none;fillColor=none;fontSize=11;fontColor=#000000;" vertex="1" parent="1">
          <mxGeometry x="520" y="345" width="40" height="30" as="geometry" />
        </mxCell>
        <mxCell id="KNuLbcdo1pJYnmBxfGh1-46" value="Да" style="text;html=1;align=center;verticalAlign=middle;resizable=0;points=[];autosize=1;strokeColor=none;fillColor=none;fontSize=11;fontColor=#000000;" vertex="1" parent="1">
          <mxGeometry x="830" y="465" width="40" height="30" as="geometry" />
        </mxCell>
        <mxCell id="KNuLbcdo1pJYnmBxfGh1-47" value="Да" style="text;html=1;align=center;verticalAlign=middle;resizable=0;points=[];autosize=1;strokeColor=none;fillColor=none;fontSize=11;fontColor=#000000;" vertex="1" parent="1">
          <mxGeometry x="1240" y="393.75" width="40" height="30" as="geometry" />
        </mxCell>
      </root>
    </mxGraphModel>
  </diagram>
</mxfile>
